<?xml version="1.0" standalone="no"?>
<!DOCTYPE svg PUBLIC "-//W3C//DTD SVG 20010904//EN"
 "http://www.w3.org/TR/2001/REC-SVG-20010904/DTD/svg10.dtd">
<svg version="1.0" xmlns="http://www.w3.org/2000/svg"
 width="3250.000000pt" height="3923.000000pt" viewBox="0 0 3250.000000 3923.000000"
 preserveAspectRatio="xMidYMid meet">
<metadata>
Created by potrace 1.15, written by Peter Selinger 2001-2017
</metadata>
<g transform="translate(0.000000,3923.000000) scale(0.100000,-0.100000)"
fill="#000000" stroke="none">
<path d="M16970 31370 c0 -5 -18 -10 -40 -10 -22 0 -40 -4 -40 -10 0 -5 -13
-10 -30 -10 -16 0 -30 -4 -30 -10 0 -5 -13 -10 -30 -10 -16 0 -30 -4 -30 -10
0 -5 -9 -10 -20 -10 -11 0 -20 -4 -20 -10 0 -5 -13 -10 -30 -10 -16 0 -30 -4
-30 -10 0 -5 -8 -10 -18 -10 -10 0 -24 -9 -32 -20 -8 -11 -21 -20 -30 -20 -9
0 -22 -9 -30 -20 -8 -11 -21 -20 -30 -20 -9 0 -22 -9 -30 -20 -8 -11 -20 -20
-27 -20 -17 0 -203 -186 -203 -203 0 -7 -9 -19 -20 -27 -11 -8 -20 -22 -20
-32 0 -10 -4 -18 -10 -18 -5 0 -10 -8 -10 -18 0 -10 -9 -24 -20 -32 -11 -8
-20 -22 -20 -32 0 -10 -4 -18 -10 -18 -5 0 -10 -9 -10 -20 0 -11 -4 -20 -10
-20 -5 0 -10 -13 -10 -30 0 -16 -4 -30 -10 -30 -5 0 -10 -9 -10 -20 0 -11 -4
-20 -10 -20 -5 0 -10 -13 -10 -30 0 -16 -4 -30 -10 -30 -5 0 -10 -18 -10 -40
0 -22 -4 -40 -10 -40 -6 0 -10 -90 -10 -250 0 -160 4 -250 10 -250 6 0 10 -22
10 -50 0 -27 5 -50 10 -50 6 0 10 -13 10 -30 0 -16 5 -30 10 -30 6 0 10 -9 10
-20 0 -11 5 -20 10 -20 6 0 10 -13 10 -30 0 -16 5 -30 10 -30 6 0 10 -9 10
-20 0 -11 5 -20 10 -20 6 0 10 -8 10 -18 0 -10 9 -24 20 -32 11 -8 20 -22 20
-32 0 -10 5 -18 10 -18 6 0 10 -8 10 -18 0 -10 9 -24 20 -32 11 -8 20 -20 20
-27 0 -16 185 -203 201 -203 6 0 24 -13 39 -30 15 -16 35 -30 44 -30 9 0 16
-4 16 -10 0 -5 8 -10 18 -10 10 0 24 -9 32 -20 8 -11 22 -20 32 -20 10 0 18
-4 18 -10 0 -5 14 -10 30 -10 17 0 30 -4 30 -10 0 -5 9 -10 20 -10 11 0 20 -4
20 -10 0 -5 14 -10 30 -10 17 0 30 -4 30 -10 0 -5 14 -10 30 -10 17 0 30 -4
30 -10 0 -5 18 -10 40 -10 22 0 40 -4 40 -10 0 -5 23 -10 50 -10 28 0 50 -4
50 -10 0 -6 67 -10 180 -10 113 0 180 4 180 10 0 6 27 10 60 10 33 0 60 4 60
10 0 6 18 10 40 10 22 0 40 5 40 10 0 6 14 10 30 10 17 0 30 5 30 10 0 6 14
10 30 10 17 0 30 5 30 10 0 6 9 10 20 10 11 0 20 5 20 10 0 6 9 10 20 10 11 0
20 5 20 10 0 6 9 10 20 10 11 0 20 5 20 10 0 6 8 10 18 10 10 0 24 9 32 20 8
11 21 20 30 20 9 0 22 9 30 20 8 11 20 20 27 20 17 0 243 226 243 243 0 7 9
19 20 27 11 8 20 21 20 30 0 9 9 22 20 30 11 8 20 22 20 32 0 10 5 18 10 18 6
0 10 9 10 20 0 11 5 20 10 20 6 0 10 14 10 30 0 17 5 30 10 30 6 0 10 9 10 20
0 11 5 20 10 20 6 0 10 14 10 30 0 17 5 30 10 30 6 0 10 18 10 40 0 22 5 40
10 40 6 0 10 23 10 50 0 28 5 50 10 50 6 0 10 67 10 180 0 113 -4 180 -10 180
-5 0 -10 23 -10 50 0 28 -4 50 -10 50 -5 0 -10 18 -10 40 0 22 -4 40 -10 40
-5 0 -10 14 -10 30 0 17 -4 30 -10 30 -5 0 -10 9 -10 20 0 11 -4 20 -10 20 -5
0 -10 9 -10 20 0 11 -4 20 -10 20 -5 0 -10 13 -10 28 0 16 -8 34 -20 42 -11 8
-20 22 -20 32 0 10 -4 18 -10 18 -5 0 -10 8 -10 18 0 10 -9 24 -20 32 -11 8
-20 20 -20 27 0 17 -226 243 -243 243 -7 0 -19 9 -27 20 -8 11 -21 20 -30 20
-9 0 -22 9 -30 20 -8 11 -22 20 -32 20 -10 0 -18 5 -18 10 0 6 -9 10 -20 10
-11 0 -20 5 -20 10 0 6 -9 10 -20 10 -11 0 -20 5 -20 10 0 6 -13 10 -30 10
-16 0 -30 5 -30 10 0 6 -9 10 -20 10 -11 0 -20 5 -20 10 0 6 -18 10 -40 10
-22 0 -40 5 -40 10 0 6 -18 10 -40 10 -22 0 -40 5 -40 10 0 6 -24 10 -52 9
l-53 -1 65 -14 c421 -91 749 -390 865 -791 111 -379 3 -796 -280 -1078 -165
-166 -391 -284 -625 -326 -103 -19 -344 -16 -438 5 -448 99 -780 412 -893 841
-21 78 -24 112 -23 260 0 152 3 180 27 267 15 53 38 122 52 153 14 32 22 62
18 68 -3 5 -1 7 4 4 11 -7 40 50 35 66 -1 5 2 6 8 2 5 -3 10 -1 10 4 0 22 2
26 16 34 8 4 14 14 14 21 0 8 7 16 15 20 8 3 15 12 15 19 0 22 188 198 267
250 133 88 323 165 473 190 14 2 1 5 -27 6 -30 0 -53 -3 -53 -9z"/>
<path d="M17247 31293 c-2 -4 -8 -23 -12 -40 -9 -43 -39 -63 -95 -63 -66 0
-88 9 -98 39 -8 22 -11 23 -17 8 -12 -30 4 -85 35 -116 81 -80 225 -21 225 92
0 40 -27 98 -38 80z"/>
<path d="M17570 31235 c0 -16 -12 -38 -29 -56 -25 -24 -38 -29 -78 -29 -51 0
-93 21 -93 46 0 8 -4 12 -10 9 -15 -9 -12 -52 5 -85 24 -47 62 -70 115 -70 95
0 156 79 128 165 -16 46 -38 58 -38 20z"/>
<path d="M16910 31166 c0 -14 -10 -36 -22 -50 -44 -48 -154 -41 -175 11 -11
27 -11 27 -12 -15 -1 -56 20 -95 63 -116 116 -55 236 55 184 169 -14 32 -38
33 -38 1z"/>
<path d="M17857 31113 c-4 -3 -7 -18 -7 -33 0 -42 -38 -70 -96 -71 -71 -2 -94
7 -94 37 0 13 -4 24 -10 24 -5 0 -10 -21 -10 -46 0 -39 5 -51 33 -79 107 -107
281 12 212 145 -17 32 -18 33 -28 23z"/>
<path d="M16626 30975 c-9 -44 -48 -75 -96 -75 -55 0 -100 18 -100 41 0 10 -5
19 -11 19 -8 0 -10 -15 -6 -46 3 -34 13 -55 35 -77 59 -59 178 -43 210 28 22
48 10 145 -17 145 -5 0 -12 -16 -15 -35z"/>
<path d="M17220 30975 c0 -63 -40 -93 -138 -105 -51 -7 -72 -5 -95 6 -16 9
-30 14 -32 12 -2 -2 6 -21 16 -43 25 -53 63 -75 131 -75 59 0 99 20 129 66 23
35 25 108 4 144 l-14 25 -1 -30z"/>
<path d="M17550 30937 c0 -34 -22 -63 -66 -85 -32 -17 -149 -19 -168 -3 -24
20 -29 8 -12 -33 20 -47 68 -76 129 -76 107 0 174 81 147 180 -14 51 -30 61
-30 17z"/>
<path d="M18100 30892 c0 -44 -37 -72 -96 -73 -71 -2 -94 7 -94 37 0 13 -4 24
-10 24 -5 0 -10 -21 -10 -46 0 -39 5 -51 33 -79 104 -104 270 2 217 139 -13
36 -40 34 -40 -2z"/>
<path d="M16908 30815 c5 -31 -19 -70 -56 -88 -44 -23 -155 -29 -181 -10 -30
20 -34 13 -16 -30 41 -98 194 -113 256 -25 29 40 36 106 15 146 -20 39 -25 40
-18 7z"/>
<path d="M17847 30782 c7 -27 -13 -69 -41 -87 -40 -26 -161 -38 -197 -20 -34
18 -34 18 -14 -28 39 -94 174 -112 244 -32 36 41 47 91 31 139 -12 37 -32 60
-23 28z"/>
<path d="M16440 30704 c0 -15 -12 -38 -29 -55 -25 -24 -38 -29 -78 -29 -51 0
-93 21 -93 46 0 8 -5 14 -11 14 -8 0 -10 -16 -6 -47 4 -38 12 -54 41 -80 29
-27 44 -33 81 -33 85 0 137 47 137 125 0 45 -16 85 -32 85 -6 0 -10 -12 -10
-26z"/>
<path d="M18247 30620 c-12 -58 -51 -78 -142 -71 -37 3 -55 17 -55 43 0 10 -4
16 -10 13 -5 -3 -10 -21 -10 -38 0 -91 107 -155 190 -112 46 24 70 62 70 112
0 73 -32 112 -43 53z"/>
<path d="M17588 30574 c-4 -3 -1 -22 7 -41 32 -75 -26 -223 -108 -279 -66 -46
-132 -65 -257 -75 -129 -10 -180 -18 -180 -30 0 -5 -24 -9 -53 -9 -44 0 -62 6
-94 29 -22 16 -47 43 -54 60 -8 17 -19 31 -26 31 -6 0 -19 3 -29 7 -11 4 -15
3 -10 -5 3 -6 0 -14 -8 -19 -12 -7 -12 -16 1 -63 7 -30 21 -66 31 -80 9 -14
15 -29 14 -33 -5 -15 37 -74 81 -114 95 -87 189 -124 322 -125 105 0 157 12
240 55 211 112 303 383 201 590 -30 62 -69 111 -78 101z"/>
<path d="M16727 30542 c7 -27 -13 -69 -41 -87 -40 -26 -161 -38 -197 -20 -33
18 -36 11 -13 -33 51 -104 205 -106 262 -3 26 45 28 78 8 126 -16 37 -27 47
-19 17z"/>
<path d="M17997 30487 c11 -58 -36 -95 -137 -108 -59 -7 -75 -6 -96 8 -33 21
-36 15 -14 -34 45 -102 206 -104 262 -3 23 41 20 122 -4 147 -14 13 -15 12
-11 -10z"/>
<path d="M16377 30393 c-4 -3 -7 -17 -7 -30 0 -13 -11 -35 -25 -48 -19 -20
-34 -25 -72 -25 -69 0 -91 9 -101 39 -8 22 -11 23 -17 8 -22 -54 34 -140 100
-153 89 -16 177 66 159 150 -8 37 -28 69 -37 59z"/>
<path d="M18266 30275 c-12 -64 -71 -89 -158 -64 -27 7 -38 15 -38 29 0 11 -4
20 -10 20 -5 0 -10 -19 -10 -41 0 -35 6 -48 39 -80 34 -34 44 -39 86 -39 84 0
135 50 135 132 -1 38 -17 78 -32 78 -3 0 -9 -16 -12 -35z"/>
<path d="M16710 30198 c0 -28 -7 -42 -31 -62 -33 -28 -46 -32 -125 -40 -37 -3
-58 0 -73 11 -12 8 -24 13 -27 10 -12 -12 11 -59 42 -87 30 -26 43 -30 92 -30
67 0 113 23 137 69 19 37 19 108 0 141 l-14 25 -1 -37z"/>
<path d="M17990 30154 c0 -40 -32 -80 -73 -92 -57 -18 -125 -20 -153 -6 -36
19 -37 18 -29 -13 14 -58 68 -93 142 -93 84 0 143 58 143 140 -1 25 -7 56 -15
70 l-14 25 -1 -31z"/>
<path d="M16417 30073 c-2 -4 -7 -20 -11 -35 -10 -45 -43 -68 -95 -68 -66 0
-90 9 -97 36 -8 30 -24 21 -24 -13 0 -38 27 -87 59 -106 46 -27 123 -23 160 9
34 28 54 84 44 123 -8 32 -29 65 -36 54z"/>
<path d="M18206 29965 c-9 -47 -47 -75 -102 -75 -59 0 -94 15 -94 40 0 11 -4
20 -10 20 -14 0 -12 -71 4 -98 45 -81 189 -83 231 -2 18 35 19 89 3 125 -15
34 -25 32 -32 -10z"/>
<path d="M16868 29911 c9 -64 -61 -111 -166 -111 -32 0 -63 5 -69 11 -22 22
-31 4 -15 -31 50 -103 201 -108 262 -8 24 39 26 98 5 138 -19 37 -23 38 -17 1z"/>
<path d="M17815 29891 c8 -27 -10 -67 -41 -88 -39 -25 -159 -36 -195 -17 -33
17 -35 12 -11 -35 37 -74 118 -99 197 -61 74 36 102 110 71 185 -16 36 -32 49
-21 16z"/>
<path d="M16550 29771 c0 -46 -29 -73 -86 -78 -61 -6 -104 9 -104 37 0 11 -4
20 -10 20 -15 0 -12 -67 5 -100 20 -39 63 -60 121 -60 41 0 51 5 85 39 33 33
39 45 39 83 0 42 -21 88 -41 88 -5 0 -9 -13 -9 -29z"/>
<path d="M17157 29737 c11 -58 -36 -95 -137 -108 -59 -7 -75 -6 -96 8 -33 21
-36 15 -14 -34 45 -102 206 -104 262 -3 23 41 20 122 -4 147 -14 13 -15 12
-11 -10z"/>
<path d="M17498 29724 c12 -63 -62 -114 -164 -114 -33 0 -65 5 -71 11 -22 22
-31 4 -15 -31 50 -103 201 -108 262 -8 24 39 26 98 5 138 -19 37 -24 38 -17 4z"/>
<path d="M18036 29705 c-9 -44 -48 -75 -96 -75 -55 0 -100 18 -100 41 0 10 -5
19 -11 19 -8 0 -10 -16 -6 -47 4 -38 12 -54 41 -80 29 -27 44 -33 81 -33 86 0
135 45 135 125 0 78 -32 115 -44 50z"/>
<path d="M16847 29604 c-4 -4 -7 -18 -7 -31 0 -13 -11 -35 -25 -48 -19 -20
-34 -25 -72 -25 -72 0 -93 8 -93 36 0 13 -4 24 -10 24 -5 0 -10 -21 -10 -46 0
-39 5 -51 34 -80 30 -30 40 -34 86 -34 93 0 148 56 137 140 -5 43 -27 77 -40
64z"/>
<path d="M17757 29531 c-10 -47 -43 -71 -98 -71 -64 0 -99 14 -99 40 0 12 -4
18 -10 15 -15 -9 -12 -62 4 -94 60 -116 246 -74 246 55 0 73 -32 113 -43 55z"/>
<path d="M17147 29453 c-4 -3 -7 -17 -7 -29 0 -13 -10 -35 -22 -49 -19 -21
-32 -26 -74 -27 -68 -1 -91 8 -102 40 l-9 27 -7 -23 c-11 -33 19 -106 52 -128
36 -24 118 -24 154 0 36 24 62 80 55 122 -6 38 -30 77 -40 67z"/>
<path d="M17456 29406 c-12 -62 -72 -89 -154 -67 -31 9 -42 17 -42 31 0 11 -4
20 -10 20 -17 0 -11 -63 10 -97 50 -82 181 -83 226 -1 24 42 13 148 -15 148
-5 0 -12 -15 -15 -34z"/>
</g>
</svg>
