<?xml version="1.0" standalone="no"?>
<!DOCTYPE svg PUBLIC "-//W3C//DTD SVG 20010904//EN"
 "http://www.w3.org/TR/2001/REC-SVG-20010904/DTD/svg10.dtd">
<svg version="1.0" xmlns="http://www.w3.org/2000/svg"
 width="3250.000000pt" height="3923.000000pt" viewBox="0 0 3250.000000 3923.000000"
 preserveAspectRatio="xMidYMid meet">
<metadata>
Created by potrace 1.15, written by Peter Selinger 2001-2017
</metadata>
<g transform="translate(0.000000,3923.000000) scale(0.100000,-0.100000)"
fill="#000000" stroke="none">
<path d="M8991 20142 c-227 -458 -546 -864 -916 -1167 -38 -32 -164 -128 -280
-214 -688 -514 -1238 -1054 -1836 -1801 -201 -251 -299 -362 -473 -535 -396
-393 -825 -701 -1351 -972 -121 -62 -216 -113 -212 -113 18 0 409 204 537 280
584 350 1050 759 1476 1297 620 780 1183 1331 1917 1876 231 172 367 288 507
433 183 189 316 359 460 588 74 119 246 444 238 451 -2 2 -32 -53 -67 -123z"/>
<path d="M14357 18135 c-93 -181 -177 -308 -365 -547 -747 -956 -1363 -1898
-2024 -3098 -144 -260 -186 -341 -171 -325 5 6 69 118 140 250 631 1158 1286
2170 1987 3069 252 323 272 351 342 468 66 111 168 308 162 313 -2 2 -34 -57
-71 -130z"/>
<path d="M1320 12225 c0 -18 133 -243 199 -335 34 -49 131 -169 215 -267 516
-606 897 -1161 1152 -1678 51 -104 94 -186 94 -182 0 17 -141 302 -216 434
-233 413 -562 883 -910 1297 -88 104 -190 225 -227 270 -84 100 -179 240 -252
372 -30 54 -55 95 -55 89z"/>
</g>
</svg>
