<?xml version="1.0" standalone="no"?>
<!DOCTYPE svg PUBLIC "-//W3C//DTD SVG 20010904//EN"
 "http://www.w3.org/TR/2001/REC-SVG-20010904/DTD/svg10.dtd">
<svg version="1.0" xmlns="http://www.w3.org/2000/svg"
 width="3250.000000pt" height="3923.000000pt" viewBox="0 0 3250.000000 3923.000000"
 preserveAspectRatio="xMidYMid meet">
<metadata>
Created by potrace 1.15, written by Peter Selinger 2001-2017
</metadata>
<g transform="translate(0.000000,3923.000000) scale(0.100000,-0.100000)"
fill="#000000" stroke="none">
<path d="M14455 15886 c369 -151 733 -441 895 -715 86 -144 140 -354 140 -540
0 -138 11 -157 120 -199 244 -94 358 -160 468 -272 209 -212 262 -503 162
-885 -77 -290 -195 -515 -367 -695 -103 -109 -197 -173 -312 -214 -78 -27 -98
-30 -211 -31 -215 0 -350 48 -417 148 -51 76 -58 114 -58 302 0 148 3 180 23
249 26 89 84 210 141 295 106 156 118 260 38 327 l-32 27 -8 -49 c-22 -133
-51 -226 -107 -339 -93 -189 -128 -323 -129 -498 -2 -298 97 -448 341 -514
100 -27 302 -25 398 5 207 65 344 175 552 444 l63 80 8 -63 c24 -199 61 -323
129 -427 45 -69 88 -108 206 -186 96 -64 125 -102 186 -246 154 -363 299 -585
519 -797 408 -391 946 -546 1523 -439 496 92 811 233 1041 464 180 182 273
394 322 728 25 171 34 183 201 295 143 95 219 163 296 266 66 88 112 179 149
293 14 47 34 105 42 130 l16 44 36 -44 c70 -86 232 -259 284 -303 280 -235
578 -274 921 -118 l64 29 297 -519 c163 -286 311 -544 328 -574 18 -29 61
-104 97 -165 35 -62 78 -128 95 -147 28 -33 33 -35 53 -22 12 7 23 18 26 24 2
5 110 280 241 610 130 330 251 636 268 680 17 44 34 83 37 87 3 4 95 -6 205
-23 288 -42 404 -46 534 -20 139 29 253 77 369 155 278 185 463 445 567 797
25 83 29 114 33 271 4 168 3 182 -22 268 -46 161 -123 288 -239 396 -130 120
-206 168 -568 358 l-165 87 -85 126 c-178 268 -328 435 -514 574 -193 145
-202 154 -186 173 11 12 11 22 3 40 -9 19 -34 29 -173 65 -209 55 -259 61
-294 33 l-26 -21 28 -3 c19 -2 -38 -26 -187 -76 -231 -79 -380 -144 -481 -212
-123 -82 -279 -214 -286 -240 -9 -37 -32 -80 -66 -125 -17 -22 20 10 83 70
300 288 611 449 910 471 157 12 334 -33 475 -120 109 -68 268 -227 502 -498
252 -293 299 -333 603 -508 394 -226 527 -352 596 -564 36 -109 44 -292 19
-416 -74 -369 -263 -670 -559 -893 -256 -193 -623 -215 -1003 -62 -48 19 -90
32 -93 28 -4 -5 -134 -326 -290 -715 -156 -390 -287 -708 -290 -708 -4 0 -190
323 -414 719 l-408 718 -52 -35 c-71 -48 -200 -109 -271 -127 -78 -20 -226
-19 -296 1 -151 45 -335 161 -460 291 -196 203 -300 461 -300 738 1 315 160
561 566 876 175 136 282 230 357 314 106 121 121 148 26 50 -54 -55 -98 -105
-98 -110 0 -6 -19 -16 -42 -22 -98 -27 -343 -206 -508 -373 -133 -133 -227
-261 -303 -410 -30 -58 -57 -106 -61 -108 -4 -2 -35 37 -69 86 -101 146 -122
166 -212 195 l-50 17 30 -22 c99 -72 162 -180 235 -398 70 -212 94 -349 93
-535 0 -189 -17 -267 -88 -410 -81 -162 -227 -308 -406 -407 -136 -74 -140
-77 -159 -121 -10 -23 -21 -80 -25 -127 -51 -625 -389 -974 -1125 -1160 -226
-58 -287 -65 -535 -65 -200 0 -243 3 -327 22 -319 72 -582 222 -827 473 -195
199 -342 440 -495 812 -34 83 -81 133 -176 188 -136 79 -232 199 -277 345 -29
94 -26 392 5 539 61 286 220 605 392 789 l59 64 -82 -43 c-81 -42 -86 -47
-172 -164 -49 -66 -92 -120 -95 -120 -3 0 -15 60 -27 133 -60 374 -245 587
-637 733 -50 18 -101 44 -114 57 -27 27 -41 80 -42 153 0 77 -28 229 -60 326
-102 306 -314 553 -640 746 -147 87 -298 151 -383 162 -101 13 -101 13 -12
-24z"/>
<path d="M13435 15788 c-380 -42 -730 -234 -939 -513 -84 -112 -226 -361 -273
-479 -92 -230 -190 -339 -375 -417 -164 -70 -348 -249 -437 -426 -124 -248
-119 -588 12 -848 130 -260 405 -473 636 -492 181 -15 380 105 468 284 71 143
45 241 -97 377 -102 98 -135 144 -160 224 -49 158 -12 349 91 466 53 60 104
89 211 120 246 71 483 29 693 -125 174 -126 230 -321 164 -561 -50 -181 -202
-506 -320 -688 -125 -192 -172 -321 -172 -475 1 -113 20 -190 93 -375 57 -142
128 -351 250 -738 l61 -194 60 81 c32 45 136 197 231 339 94 141 247 368 340
505 93 136 175 264 182 285 26 75 27 127 1 362 -51 473 -54 742 -10 915 23 90
97 233 154 296 167 187 484 277 694 199 83 -31 147 -98 200 -207 42 -87 42
-89 42 -198 l0 -110 -49 -95 c-68 -135 -103 -226 -136 -360 -44 -184 -47 -218
-17 -276 31 -61 110 -137 163 -155 53 -18 194 -15 273 5 71 19 168 65 219 104
78 59 317 493 368 667 32 110 43 277 25 380 -34 193 -152 380 -319 503 -74 55
-173 112 -242 138 -89 34 -104 56 -220 329 -165 388 -231 498 -399 665 -136
136 -261 223 -441 309 -323 153 -688 217 -1025 179z m397 -74 c450 -62 761
-199 1008 -443 204 -201 331 -418 444 -756 26 -77 59 -157 73 -178 32 -46 86
-79 168 -102 175 -50 317 -180 415 -380 133 -271 109 -441 -129 -899 -152
-294 -167 -312 -297 -355 -95 -32 -265 -41 -329 -17 -82 32 -133 116 -122 206
8 69 81 284 126 370 21 41 57 111 80 155 72 139 68 248 -15 423 -123 257 -350
330 -686 222 -123 -39 -208 -90 -293 -175 -159 -160 -210 -319 -222 -695 -6
-198 4 -383 33 -635 16 -136 13 -203 -12 -295 -19 -68 -41 -107 -145 -251 -45
-63 -175 -253 -290 -424 -114 -170 -225 -330 -246 -353 l-38 -44 -139 429
c-193 594 -236 733 -236 768 0 41 39 120 170 344 61 105 133 238 161 294 87
183 163 449 191 670 11 87 10 106 -5 165 -34 128 -129 234 -283 314 -144 75
-236 100 -391 106 -112 4 -147 1 -226 -17 -127 -29 -207 -69 -272 -136 -148
-151 -188 -423 -93 -625 13 -28 64 -87 133 -155 122 -121 144 -161 130 -243
-16 -100 -130 -232 -245 -286 -59 -28 -74 -31 -166 -31 l-101 0 -104 52 c-175
87 -302 221 -393 414 -58 121 -87 238 -93 369 -9 168 26 324 99 448 70 121
270 292 463 397 165 90 188 116 330 380 238 439 378 631 562 769 139 104 289
169 465 201 103 19 383 18 520 -1z"/>
<path d="M22820 15336 c-89 -20 -130 -36 -220 -82 -162 -84 -268 -178 -551
-494 -97 -107 -265 -280 -374 -385 -517 -493 -593 -576 -669 -730 -51 -104
-68 -168 -68 -263 -1 -137 49 -265 153 -390 174 -210 452 -342 719 -342 88 0
230 25 292 52 61 26 121 93 139 155 29 99 9 310 -35 376 -35 52 -76 60 -187
35 -126 -28 -279 -30 -332 -4 -100 49 -105 237 -9 318 49 41 94 51 196 45 192
-13 360 -75 466 -173 105 -98 148 -225 137 -402 -10 -143 -40 -261 -94 -369
-41 -83 -47 -101 -46 -158 1 -85 28 -141 185 -380 68 -104 187 -292 264 -417
125 -205 141 -228 164 -225 21 2 29 14 57 92 18 50 92 254 164 455 163 451
161 437 77 615 -75 158 -89 209 -95 340 -6 142 12 229 73 355 108 220 360 390
577 390 189 0 347 -94 421 -249 28 -60 31 -75 31 -161 0 -84 -4 -103 -29 -158
-39 -85 -81 -105 -123 -59 -24 26 -37 66 -53 161 -14 85 -38 135 -86 174 -92
76 -282 65 -361 -20 -37 -39 -53 -92 -53 -172 0 -153 63 -415 124 -521 33 -55
87 -102 156 -134 50 -24 66 -26 185 -26 111 0 140 4 200 24 272 93 550 326
650 544 58 127 101 414 85 577 -19 199 -78 330 -209 460 -70 70 -104 95 -186
137 -90 46 -190 82 -314 113 -57 15 -109 64 -331 315 -335 378 -479 494 -705
565 -87 28 -299 37 -385 16z"/>
<path d="M4930 15086 c-321 -98 -568 -298 -690 -558 -61 -131 -84 -262 -60
-338 7 -23 8 -22 9 11 1 49 35 173 66 244 61 138 178 275 329 387 201 149 396
229 606 248 l85 7 -67 2 c-37 0 -70 6 -73 11 -11 18 -127 9 -205 -14z"/>
<path d="M12080 14942 c-39 -73 -135 -196 -200 -254 -32 -29 -98 -77 -147
-107 -292 -180 -384 -258 -483 -410 -101 -153 -144 -305 -143 -506 0 -165 20
-270 90 -465 24 -69 47 -133 50 -143 5 -15 -12 -10 -83 26 -253 127 -496 141
-720 42 -47 -21 -61 -23 -67 -13 -5 7 -142 318 -305 691 -168 381 -310 694
-327 715 -18 22 -28 46 -27 59 2 13 -1 23 -6 23 -34 0 -110 -132 -411 -709
-178 -341 -329 -621 -336 -621 -7 0 -77 18 -156 41 -363 102 -434 106 -794 39
-88 -16 -163 -30 -166 -30 -3 0 5 46 18 103 29 125 40 313 24 416 -23 147
-103 303 -187 363 -24 17 -44 38 -44 46 0 10 -6 12 -17 7 -40 -16 -52 -16 -94
5 l-44 21 30 -22 c17 -12 65 -57 107 -100 60 -61 86 -97 122 -171 63 -128 80
-198 80 -338 0 -127 -20 -217 -73 -334 -40 -89 -80 -145 -209 -293 -157 -181
-247 -245 -400 -284 -232 -59 -532 35 -613 192 -27 53 -25 133 4 191 l23 45
-25 -7 c-50 -13 -86 -119 -70 -206 20 -108 71 -166 195 -225 90 -43 186 -59
407 -66 227 -7 208 7 155 -118 -69 -164 -96 -393 -63 -541 48 -216 155 -359
425 -569 93 -72 122 -90 154 -92 21 -2 74 -21 117 -43 44 -21 79 -37 79 -36 0
2 -42 29 -94 59 -193 116 -380 275 -472 403 -54 75 -108 188 -131 274 -26 97
-23 271 6 380 26 103 101 260 169 355 94 134 338 402 413 454 152 107 333 156
539 148 155 -7 229 -25 441 -112 153 -62 164 -65 176 -49 7 10 167 312 354
671 188 360 343 652 345 650 2 -2 148 -334 324 -737 176 -404 324 -738 329
-743 4 -4 46 10 92 32 123 59 194 75 329 76 93 0 129 -5 190 -23 302 -95 527
-339 626 -677 35 -123 44 -314 20 -435 -32 -159 -89 -268 -203 -390 -88 -94
-154 -149 -383 -315 -216 -157 -508 -391 -700 -561 -80 -70 -182 -159 -228
-197 l-83 -70 28 -24 c52 -42 67 -40 135 18 35 29 164 152 288 274 236 232
316 297 518 423 170 106 322 221 412 311 200 200 293 392 309 636 8 115 7 143
-4 228 -5 33 -3 38 12 33 10 -3 65 -15 123 -27 141 -29 319 -23 427 15 241 83
395 223 463 423 18 53 24 96 27 193 4 117 2 131 -26 224 -17 55 -45 124 -63
155 -83 147 -93 173 -93 237 0 55 4 68 31 101 65 82 196 145 300 146 78 1 157
-36 212 -98 53 -60 66 -113 59 -228 -10 -150 -22 -179 -213 -513 -35 -61 -64
-113 -64 -116 0 -3 -32 -57 -71 -119 -39 -62 -74 -120 -77 -129 -3 -8 -18 -34
-34 -58 -50 -74 -90 -169 -95 -230 -9 -96 -12 -86 337 -957 250 -625 303 -746
342 -782 20 -18 21 -17 82 47 103 109 984 1284 1036 1381 47 89 56 181 31 332
-57 339 -48 668 26 976 53 223 107 312 223 366 47 22 50 24 20 19 -54 -10
-146 -62 -189 -109 -80 -87 -120 -192 -163 -429 -20 -105 -23 -155 -22 -381 0
-225 3 -279 23 -400 13 -77 25 -171 28 -208 5 -61 3 -72 -21 -107 -45 -69
-1013 -1368 -1041 -1399 -10 -11 -61 108 -273 640 -143 360 -288 727 -322 816
l-63 162 18 53 c9 29 58 123 108 208 50 85 134 230 188 322 224 382 250 449
252 653 2 104 -1 126 -19 166 -74 159 -268 228 -458 165 -135 -46 -209 -107
-252 -211 -23 -56 -15 -155 18 -220 14 -28 48 -94 76 -148 137 -265 105 -527
-87 -717 -124 -124 -270 -185 -466 -197 -86 -5 -109 -2 -165 17 -75 25 -107
47 -184 128 -246 258 -432 607 -502 942 -26 125 -24 338 5 445 56 208 193 395
379 518 40 26 104 68 144 95 89 58 222 187 275 267 50 76 117 195 111 200 -2
2 -15 -17 -28 -43z"/>
<path d="M5075 14940 c-307 -43 -533 -210 -666 -494 -123 -264 -122 -553 3
-764 75 -126 232 -260 366 -314 48 -19 76 -22 178 -23 119 0 122 1 189 35 57
29 76 45 111 97 74 108 78 199 17 335 -20 46 -25 69 -21 111 13 157 128 237
326 225 102 -6 192 -47 251 -114 70 -80 87 -178 56 -330 -60 -288 -216 -556
-496 -849 -52 -55 -103 -111 -112 -125 -15 -22 -17 -69 -17 -462 0 -431 0
-437 20 -443 25 -8 14 -17 218 168 90 82 223 199 296 261 160 137 201 182 234
255 23 49 25 66 22 141 -11 276 25 486 119 695 85 187 236 342 417 427 60 29
79 33 149 33 146 0 180 -39 180 -205 0 -58 -4 -118 -8 -133 -4 -16 -45 -68
-91 -115 -99 -103 -128 -154 -134 -234 -4 -48 0 -67 22 -112 43 -87 113 -130
245 -152 279 -45 441 20 560 224 53 92 157 318 188 411 75 224 21 474 -136
631 -84 83 -113 97 -556 263 -722 271 -1396 498 -1605 541 -97 19 -249 27
-325 16z m270 -75 c94 -18 376 -102 675 -202 435 -145 1293 -462 1393 -515 72
-39 166 -138 202 -213 59 -126 68 -268 24 -410 -11 -39 -65 -160 -119 -271
-77 -159 -108 -210 -146 -250 -84 -85 -160 -106 -336 -92 -103 8 -174 38 -233
98 -35 36 -40 47 -39 83 2 53 45 146 141 304 104 172 123 245 88 344 -59 167
-251 196 -486 73 -189 -99 -341 -279 -420 -493 -44 -122 -65 -231 -84 -426
-19 -205 -39 -319 -66 -382 -13 -30 -47 -72 -97 -120 -108 -104 -509 -463
-517 -463 -4 0 -5 165 -3 368 4 428 -11 373 144 540 133 143 181 201 248 300
159 234 269 559 252 742 -15 169 -144 295 -336 330 -198 36 -425 -73 -460
-221 -15 -62 -8 -104 35 -199 64 -143 57 -218 -29 -306 -78 -80 -160 -99 -301
-69 -306 64 -532 385 -494 699 48 391 296 679 649 751 88 18 222 18 315 0z"/>
<path d="M27480 14744 c-30 -17 -54 -24 -73 -20 -24 5 -40 -6 -120 -77 -124
-110 -127 -113 -322 -282 -210 -182 -295 -264 -295 -286 0 -9 18 -29 41 -43
22 -15 105 -91 184 -169 259 -258 357 -455 285 -572 -52 -85 -250 -171 -374
-163 -76 5 -106 25 -140 98 -20 43 -21 60 -23 465 0 231 -4 437 -8 458 -10 50
-84 148 -149 197 -113 86 -234 116 -428 108 -94 -4 -130 -11 -213 -39 -95 -31
-104 -37 -172 -105 -58 -58 -81 -91 -122 -175 -89 -183 -192 -477 -251 -719
-26 -108 -30 -143 -30 -263 0 -163 17 -257 67 -377 46 -108 83 -159 186 -257
112 -105 202 -154 425 -230 305 -104 482 -186 754 -349 174 -105 212 -123 266
-129 20 -2 46 -6 57 -10 19 -6 19 -6 1 7 -10 7 -71 51 -135 97 -315 229 -305
223 -460 291 -64 29 -154 59 -226 75 -665 153 -952 537 -840 1124 37 191 133
471 241 697 80 166 205 262 393 300 203 40 420 -31 515 -169 65 -95 70 -119
70 -342 1 -110 -3 -279 -8 -375 -10 -198 1 -272 52 -344 63 -91 192 -126 319
-88 84 26 254 132 297 185 28 35 31 45 31 110 l0 72 -72 105 c-40 58 -132 181
-205 275 -104 132 -146 178 -192 208 l-58 39 23 23 c13 12 189 167 392 344
202 178 367 325 367 327 0 5 1 6 -50 -22z"/>
<path d="M27697 14634 c67 -71 163 -169 213 -219 50 -49 136 -138 191 -197
l100 -106 -57 -94 c-88 -144 -142 -264 -154 -341 -33 -213 102 -403 327 -462
149 -39 243 0 243 102 0 23 -13 93 -29 155 -68 263 -62 588 14 755 28 62 93
135 150 169 161 94 470 134 656 85 317 -82 512 -338 603 -791 98 -485 12 -827
-265 -1060 -157 -131 -355 -201 -650 -230 -217 -21 -273 -56 -408 -253 -147
-216 -239 -315 -387 -416 -121 -82 -267 -133 -424 -150 -64 -6 -73 -9 -37 -10
27 0 70 -8 97 -17 45 -15 56 -15 128 0 249 50 473 226 667 521 82 126 153 195
229 224 29 11 123 29 207 40 315 42 500 115 647 255 129 123 203 247 256 430
80 277 71 590 -25 863 -95 268 -278 514 -446 597 -39 20 -113 47 -165 61 -205
55 -492 19 -707 -89 -124 -63 -203 -178 -237 -345 -27 -139 -10 -464 43 -793
l6 -38 -51 0 c-79 0 -152 21 -219 62 -174 109 -207 310 -83 508 73 117 98 178
103 258 l4 73 -241 250 c-133 137 -256 259 -274 272 -17 12 -32 28 -32 36 0
10 -9 12 -35 7 -21 -4 -44 -2 -57 5 -13 7 32 -46 99 -117z"/>
<path d="M18670 14627 c0 -2 146 -132 325 -287 179 -156 325 -284 325 -286 0
-1 -22 -46 -49 -98 -118 -230 -180 -460 -216 -806 -28 -276 22 -383 192 -406
58 -7 176 10 213 32 19 11 20 14 5 10 -11 -3 -42 -10 -68 -17 -26 -6 -79 -9
-118 -7 -57 5 -78 11 -117 38 l-47 32 -1 66 c-2 95 15 319 32 437 31 214 82
381 164 546 58 115 77 195 52 223 -18 19 -270 240 -330 288 -19 15 -59 37 -90
48 -61 23 -125 65 -214 142 -32 28 -58 48 -58 45z"/>
<path d="M27535 14591 c-17 -10 -130 -120 -252 -243 -244 -245 -245 -247 -203
-316 11 -18 62 -86 114 -150 158 -199 245 -343 281 -466 23 -77 17 -185 -13
-247 -63 -128 -233 -234 -470 -290 -123 -30 -274 -24 -353 13 -31 14 -73 42
-94 63 -44 45 -91 139 -105 214 -14 76 -12 297 5 496 27 310 21 353 -56 418
-163 140 -382 137 -524 -8 -92 -94 -211 -364 -249 -565 -21 -106 -20 -289 0
-388 44 -217 179 -412 370 -535 134 -87 253 -129 449 -157 88 -14 146 -28 182
-46 50 -24 162 -105 403 -290 199 -154 338 -230 505 -280 114 -34 291 -38 395
-10 242 65 495 289 636 561 84 164 114 181 331 195 302 18 493 89 662 244 89
83 183 244 216 371 55 216 42 541 -31 734 -72 190 -222 327 -413 376 -76 19
-232 22 -317 5 -225 -44 -361 -135 -409 -271 -31 -88 -13 -261 54 -524 47
-185 46 -201 -23 -270 -98 -98 -232 -135 -365 -101 -201 52 -337 185 -371 365
-35 186 22 448 132 604 l20 28 -90 97 c-50 53 -157 163 -239 244 l-148 148
-30 -19z m207 -238 c99 -92 183 -174 188 -183 5 -10 -9 -98 -40 -240 -81 -371
-85 -480 -23 -608 93 -194 431 -330 640 -258 68 23 160 91 198 146 26 38 30
54 33 124 3 68 -3 109 -38 256 -47 197 -60 324 -40 396 17 61 92 142 165 177
139 69 359 93 490 53 152 -45 265 -139 334 -276 64 -128 76 -200 76 -450 0
-194 -2 -223 -23 -295 -72 -251 -246 -431 -498 -514 -90 -30 -169 -42 -394
-59 -180 -14 -216 -40 -325 -237 -74 -132 -123 -202 -200 -284 -178 -190 -457
-285 -695 -237 -164 34 -252 85 -634 369 -262 195 -339 239 -447 256 -195 31
-372 88 -489 157 -308 182 -441 616 -311 1014 33 98 115 257 174 335 92 122
191 152 332 101 74 -27 121 -56 150 -95 17 -22 20 -41 20 -126 0 -55 -6 -174
-14 -264 -9 -102 -12 -217 -8 -305 9 -209 37 -295 128 -392 119 -125 329 -152
589 -77 177 51 294 115 374 204 56 63 85 122 99 205 25 148 -41 313 -260 644
-71 107 -132 201 -137 208 -5 8 59 81 189 217 109 113 201 205 207 205 5 0 91
-75 190 -167z"/>
<path d="M18408 14498 c-20 -18 -84 -89 -144 -158 -60 -68 -150 -167 -200
-220 -50 -52 -99 -109 -108 -127 -29 -58 -21 -90 67 -265 183 -360 248 -590
213 -755 -29 -140 -92 -232 -212 -312 -300 -201 -603 -98 -775 264 -55 116
-60 139 -94 465 -37 353 -55 412 -129 418 -59 5 -119 -31 -187 -112 -171 -201
-286 -429 -334 -661 -23 -110 -31 -317 -16 -397 24 -121 94 -210 219 -276 67
-36 112 -76 146 -131 13 -20 86 -160 163 -311 160 -313 216 -412 304 -531 192
-258 446 -417 739 -460 154 -22 605 9 819 57 267 60 477 170 640 335 163 164
255 363 296 638 33 225 80 300 271 432 191 131 317 274 376 426 97 251 29 507
-200 744 -91 95 -146 127 -237 136 -126 13 -254 -69 -290 -187 -24 -77 -30
-287 -15 -488 9 -129 9 -182 0 -232 -22 -126 -65 -190 -155 -238 -47 -26 -57
-27 -190 -27 -334 1 -478 109 -521 395 -25 165 -16 254 55 525 33 127 80 301
105 387 48 165 54 210 34 253 -7 15 -60 64 -118 108 -58 45 -174 139 -258 209
-137 114 -157 128 -191 128 -29 0 -46 -8 -73 -32z m259 -175 c99 -82 208 -173
243 -204 62 -55 64 -58 63 -105 0 -29 -20 -109 -47 -194 -55 -171 -99 -346
-122 -485 -24 -142 -25 -437 -2 -522 39 -140 113 -235 228 -291 102 -50 185
-65 350 -66 130 -1 150 2 194 22 104 47 170 125 206 239 32 104 34 189 10 378
-37 283 -21 353 107 476 l64 62 64 -5 c82 -7 138 -39 226 -128 74 -75 137
-189 164 -295 19 -75 19 -233 0 -304 -36 -137 -140 -263 -344 -416 -219 -164
-301 -254 -301 -329 0 -16 -7 -76 -15 -135 -87 -596 -401 -895 -1046 -996
-145 -23 -480 -31 -605 -15 -365 46 -620 218 -855 579 -88 135 -216 386 -269
531 -86 232 -132 288 -273 336 -53 18 -100 66 -131 133 -18 41 -21 65 -21 206
0 175 12 247 67 405 53 152 158 323 289 471 45 50 68 69 98 76 l39 10 6 -56
c4 -31 11 -137 16 -236 5 -99 17 -220 25 -270 63 -356 260 -625 506 -690 231
-62 539 85 644 306 119 251 70 558 -149 941 -110 191 -109 193 49 358 44 47
136 147 204 223 68 75 126 137 130 137 4 0 89 -66 188 -147z"/>
<path d="M18065 14329 c-119 -119 -183 -171 -257 -208 -39 -20 -128 -112 -135
-139 -11 -45 6 -124 48 -215 152 -338 258 -637 266 -753 7 -93 -17 -150 -78
-191 -37 -25 -52 -28 -118 -28 -85 1 -117 13 -182 72 -70 64 -99 151 -122 371
-8 68 -19 127 -25 130 -9 7 -23 52 -36 122 -8 44 4 -231 15 -325 16 -141 39
-255 59 -296 48 -94 156 -145 289 -137 139 8 227 68 250 169 25 111 -81 512
-208 786 -111 240 -101 296 89 483 135 133 286 290 279 290 -3 0 -63 -59 -134
-131z"/>
<path d="M9607 14082 c-21 -37 -79 -155 -129 -262 -50 -107 -131 -280 -182
-385 l-91 -190 0 -80 c1 -66 6 -93 32 -156 155 -376 15 -759 -342 -935 -121
-59 -197 -77 -306 -72 -73 3 -97 9 -155 38 -87 42 -189 142 -228 222 -32 67
-44 162 -27 223 11 41 116 179 130 171 20 -13 73 -138 82 -195 12 -78 37 -128
83 -168 46 -41 97 -57 176 -57 150 0 232 100 259 314 29 228 -84 476 -257 563
-134 67 -248 69 -451 11 -213 -62 -400 -181 -520 -332 -135 -168 -198 -354
-208 -612 -7 -169 11 -268 69 -390 34 -71 56 -100 132 -175 100 -99 184 -152
339 -215 131 -54 173 -95 275 -272 46 -78 113 -186 150 -237 78 -110 242 -281
290 -302 17 -8 32 -19 32 -25 0 -6 20 -11 48 -12 67 -1 101 -6 96 -14 -4 -7
35 -23 49 -20 4 1 7 -3 7 -8 0 -5 3 -9 8 -8 4 1 17 -3 30 -10 12 -7 22 -10 22
-6 0 3 11 -1 25 -10 14 -9 25 -14 25 -11 0 2 12 0 28 -6 33 -13 53 -18 117
-26 81 -12 235 -6 235 9 0 5 5 6 10 3 6 -4 17 -1 25 5 8 7 15 9 15 5 0 -4 7
-2 15 5 8 7 15 9 15 5 0 -4 6 -2 13 4 8 6 17 8 20 4 4 -3 7 -1 7 6 0 7 4 10 8
7 12 -7 112 41 112 54 0 5 3 9 8 9 19 -3 33 2 28 10 -3 5 2 8 12 7 9 0 16 4
15 11 -2 9 9 9 43 -2 l45 -13 77 61 c42 33 140 115 217 182 248 214 425 358
670 542 281 211 386 301 465 400 105 130 150 248 150 395 0 314 -289 624 -676
724 -87 22 -114 25 -224 22 -148 -5 -206 -25 -268 -92 -61 -66 -84 -140 -84
-267 0 -85 4 -116 20 -152 33 -74 41 -77 252 -74 170 2 189 0 230 -19 25 -12
54 -31 64 -43 25 -27 33 -124 16 -176 -15 -45 -62 -100 -104 -122 -114 -59
-477 61 -601 199 -99 109 -129 273 -85 465 29 127 55 196 97 260 71 108 91
219 59 323 -8 25 -106 232 -218 460 -112 228 -213 434 -223 458 -10 23 -21 42
-24 42 -3 0 -23 -31 -44 -68z"/>
<path d="M5532 14010 c-72 -17 -111 -86 -112 -195 0 -38 5 -88 11 -110 7 -22
12 -78 12 -125 0 -69 -5 -97 -26 -151 -31 -75 -33 -89 -13 -89 25 0 75 69 92
127 14 47 15 78 9 177 -15 237 -9 269 53 295 26 11 37 10 75 -7 36 -16 49 -30
70 -73 15 -29 27 -63 27 -75 0 -22 -108 -282 -127 -306 -27 -34 -94 -169 -91
-184 3 -18 154 187 240 326 109 175 94 293 -45 359 -69 32 -125 43 -175 31z"/>
<path d="M6698 13698 c-102 -9 -134 -26 -227 -117 -141 -139 -231 -302 -281
-511 -6 -25 -15 -146 -19 -270 -7 -213 -9 -229 -38 -311 -54 -157 -111 -226
-363 -440 -107 -91 -247 -222 -532 -497 -53 -51 -59 -55 -83 -44 l-25 12 -2
307 c-1 232 -3 277 -8 183 -4 -82 -13 -140 -24 -170 -16 -39 -17 -70 -13 -240
4 -193 10 -240 29 -240 24 0 112 75 358 305 632 591 688 646 725 710 27 47 42
144 50 310 16 337 43 450 153 640 33 59 181 252 211 278 24 20 46 27 106 32
76 7 79 10 67 50 -7 19 -13 19 -84 13z"/>
</g>
</svg>
