<?xml version="1.0" standalone="no"?>
<!DOCTYPE svg PUBLIC "-//W3C//DTD SVG 20010904//EN"
 "http://www.w3.org/TR/2001/REC-SVG-20010904/DTD/svg10.dtd">
<svg version="1.0" xmlns="http://www.w3.org/2000/svg"
 width="3250.000000pt" height="3923.000000pt" viewBox="0 0 3250.000000 3923.000000"
 preserveAspectRatio="xMidYMid meet">
<metadata>
Created by potrace 1.15, written by Peter Selinger 2001-2017
</metadata>
<g transform="translate(0.000000,3923.000000) scale(0.100000,-0.100000)"
fill="#000000" stroke="none">
<path d="M15682 30677 c73 -33 103 -88 93 -171 -8 -77 -25 -116 -63 -148 -45
-38 -104 -44 -161 -16 -61 31 -121 129 -121 200 0 41 5 54 38 90 l37 42 -32
-22 c-104 -73 -122 -217 -41 -317 81 -98 231 -110 328 -27 123 104 101 289
-42 363 -21 10 -43 19 -50 18 -7 0 -1 -6 14 -12z"/>
<path d="M15392 29928 c-13 -36 -57 -88 -229 -272 -226 -239 -302 -432 -290
-736 3 -74 13 -171 23 -215 9 -44 17 -88 18 -97 0 -18 8 -23 18 -13 3 3 -3 40
-14 83 -23 98 -35 261 -27 377 17 238 94 384 340 647 159 170 181 200 177 234
l-3 29 -13 -37z"/>
<path d="M15281 29656 c-199 -214 -258 -306 -302 -471 -28 -105 -30 -308 -4
-442 9 -51 21 -93 25 -93 15 0 22 21 11 34 -15 18 -41 190 -41 277 0 175 46
327 140 463 50 72 231 274 307 344 29 26 33 32 17 32 -12 0 -71 -56 -153 -144z"/>
<path d="M12655 29721 c22 -10 51 -31 65 -46 22 -24 25 -35 24 -104 -2 -135
-50 -195 -155 -196 -72 0 -101 20 -149 101 -28 47 -35 70 -35 111 0 47 4 56
40 94 23 24 31 37 19 31 -11 -6 -37 -29 -56 -50 -89 -98 -66 -244 49 -325 33
-24 55 -30 110 -34 60 -4 74 -1 123 24 79 40 113 93 118 182 3 54 0 76 -16
107 -26 50 -67 89 -114 108 -52 22 -71 19 -23 -3z"/>
<path d="M13170 29200 c0 -22 63 -32 275 -40 322 -14 472 -43 640 -125 214
-104 344 -277 415 -552 6 -26 17 -43 25 -43 8 0 15 5 15 10 0 6 -4 10 -8 10
-5 0 -14 24 -21 53 -63 250 -207 436 -416 537 -171 83 -336 115 -678 129 -129
5 -213 13 -220 20 -14 14 -27 14 -27 1z"/>
<path d="M12990 29150 c0 -4 9 -15 20 -25 11 -10 20 -13 20 -7 0 8 7 9 24 2
46 -17 234 -40 332 -40 288 0 551 -53 702 -141 31 -19 92 -68 134 -110 62 -62
85 -94 122 -170 44 -93 80 -205 70 -221 -3 -4 2 -8 10 -8 21 0 20 5 -10 102
-82 260 -229 411 -477 492 -137 45 -252 60 -577 76 -138 7 -209 15 -277 33
-51 13 -93 20 -93 17z"/>
<path d="M17050 28975 c-122 -26 -241 -81 -358 -167 -36 -26 -69 -45 -74 -42
-4 3 -8 -4 -8 -15 0 -12 2 -21 4 -21 3 0 38 25 78 55 160 121 353 191 497 183
115 -7 167 -37 327 -190 160 -154 239 -209 298 -207 l41 1 -37 8 c-60 11 -166
89 -308 226 -155 148 -197 172 -316 179 -47 3 -105 -1 -144 -10z"/>
<path d="M17104 28900 c-104 -15 -210 -60 -319 -133 -89 -60 -145 -108 -145
-123 0 -18 16 -18 23 0 8 19 108 94 192 144 106 63 204 94 300 95 107 2 138
-15 291 -164 126 -122 233 -200 328 -239 30 -13 53 -27 50 -32 -3 -4 12 -8 33
-7 36 0 34 2 -54 44 -135 64 -193 106 -339 246 -169 162 -226 189 -360 169z"/>
<path d="M18346 28536 c37 -37 42 -65 24 -141 -13 -56 -49 -85 -106 -85 -61 0
-77 10 -113 75 -37 65 -38 86 -9 134 l22 36 -23 -20 c-35 -30 -51 -69 -51
-122 0 -146 179 -214 288 -110 73 70 60 199 -26 250 -43 25 -44 21 -6 -17z"/>
<path d="M15692 27914 c141 -228 106 -518 -86 -709 -121 -120 -260 -177 -431
-178 -283 -1 -513 172 -590 443 -14 51 -15 52 -10 12 20 -162 165 -342 340
-423 68 -31 192 -59 257 -59 208 2 417 114 528 283 114 174 122 422 18 604
-16 29 -34 55 -39 59 -6 3 0 -11 13 -32z"/>
<path d="M12556 27509 c-61 -15 -156 -65 -209 -111 -65 -55 -140 -156 -185
-248 -20 -41 -40 -76 -44 -78 -5 -2 -8 -13 -8 -24 0 -11 -16 -43 -36 -72 l-36
-51 37 40 c20 22 61 89 90 148 64 128 106 188 183 258 173 158 395 177 645 54
37 -18 67 -28 67 -21 0 18 -14 33 -30 34 -8 0 -58 17 -110 38 -87 34 -105 37
-210 40 -63 2 -133 -1 -154 -7z"/>
<path d="M12565 27422 c-75 -26 -134 -64 -193 -124 -67 -68 -81 -90 -144 -213
-28 -55 -59 -112 -70 -127 l-19 -28 22 0 c12 0 19 3 16 6 -4 4 2 19 12 33 10
14 36 64 58 111 75 160 184 273 309 319 63 24 164 28 246 9 67 -16 254 -109
251 -126 -2 -6 2 -12 7 -12 6 0 10 8 10 18 0 20 -60 58 -157 100 -125 54 -255
66 -348 34z"/>
<path d="M17999 27352 c43 -85 70 -175 87 -287 18 -126 35 -177 80 -242 68
-98 155 -154 585 -368 426 -213 521 -277 620 -418 64 -91 90 -163 96 -264 7
-96 -8 -180 -44 -264 -14 -33 -24 -61 -22 -63 2 -1 34 -19 71 -39 480 -265
278 -840 -342 -974 -127 -27 -398 -24 -540 6 -389 82 -853 325 -1401 732 -451
336 -769 617 -1301 1150 -207 207 -386 380 -398 384 -20 6 -20 6 -3 -29 9 -20
18 -34 21 -32 2 2 -1 14 -8 25 -6 12 -8 21 -6 21 3 0 178 -172 388 -383 376
-377 596 -580 893 -827 553 -460 1109 -816 1508 -964 436 -162 861 -153 1165
26 73 43 209 179 244 244 78 145 76 320 -4 447 -42 65 -135 147 -212 187 l-64
32 19 42 c32 73 49 157 49 241 0 135 -39 240 -129 352 -92 112 -193 177 -583
373 -586 295 -629 335 -672 613 -10 59 -28 138 -40 175 -28 81 -67 162 -78
162 -5 0 5 -26 21 -58z"/>
<path d="M11768 26860 c45 -27 56 -57 47 -125 -10 -82 -46 -120 -113 -120 -59
0 -83 17 -118 87 -29 58 -30 87 -4 121 26 33 26 45 -1 21 -54 -49 -66 -145
-26 -204 35 -52 70 -73 131 -78 172 -14 249 200 106 295 -18 13 -38 23 -44 23
-6 0 4 -9 22 -20z"/>
<path d="M12767 26375 c14 -104 75 -217 139 -258 38 -25 39 -27 19 -82 -8 -23
-14 -77 -14 -130 -1 -104 23 -185 79 -279 41 -68 152 -192 205 -227 32 -21 35
-28 30 -55 -21 -120 -127 -298 -394 -664 -138 -189 -221 -343 -252 -469 -28
-112 -23 -278 10 -364 41 -105 128 -194 214 -219 23 -6 43 -12 44 -13 1 0 -11
-42 -27 -92 -54 -169 -63 -325 -25 -435 35 -100 132 -175 275 -214 80 -21 299
-24 410 -6 233 39 555 201 787 395 518 435 889 1213 1062 2227 37 215 69 465
76 585 4 76 2 70 -10 -40 -91 -807 -252 -1416 -511 -1935 -294 -587 -704 -983
-1209 -1165 -144 -52 -232 -68 -390 -68 -211 -1 -333 38 -419 134 -112 125
-113 337 -1 612 6 13 2 17 -16 17 -42 0 -123 45 -166 92 -80 88 -113 181 -113
324 0 179 69 344 246 590 280 388 358 514 410 667 l24 72 -27 19 c-53 36 -188
182 -222 239 -90 153 -106 306 -47 448 5 11 -5 23 -33 42 -64 43 -109 119
-150 257 l-10 35 6 -40z"/>
<path d="M18029 25995 c54 -17 109 -68 117 -110 8 -44 -14 -154 -38 -187 -27
-39 -68 -58 -125 -58 -68 0 -103 25 -147 104 -50 92 -50 141 2 198 25 28 30
38 15 30 -32 -18 -82 -82 -93 -122 -25 -88 8 -187 80 -239 62 -45 132 -58 203
-37 172 50 224 251 96 373 -33 31 -105 64 -138 62 -9 0 4 -6 28 -14z"/>
<path d="M14085 24789 c48 -18 91 -55 105 -90 18 -43 1 -165 -28 -207 -56 -77
-174 -83 -238 -10 -37 41 -74 126 -74 168 0 34 7 48 43 87 47 51 20 44 -30 -9
-80 -83 -82 -205 -5 -290 116 -128 324 -95 390 62 23 56 12 151 -24 202 -31
45 -88 82 -139 92 l-30 6 30 -11z"/>
</g>
</svg>
